# xmcd CD database file
#
# Track frame offsets:
#	150
#	21861
#	62633
#	92199
#	131106
#	159166
#	178168
#	226816
#	247393
#
# Disc length: 3701 seconds
#
# Revision: 0
# Processed by: cddbd v1.5.1PL0 Copyright (c) Steve Scherf et al.
# Submitted via: CDex 1.51
#
DISCID=770e7309
DTITLE=supernova - supernova
DYEAR=2005
DGENRE=Jazz
TTITLE0=Mr P.C.
TTITLE1=Forward to You
TTITLE2=Giant Steps
TTITLE3=First Circle
TTITLE4=But Wait
TTITLE5=Don't Know Why
TTITLE6=Question and Answer
TTITLE7=Armando's Rhumba
TTITLE8=Billie Jean
EXTD=YEAR: 2005
EXTT0=
EXTT1=
EXTT2=
EXTT3=
EXTT4=
EXTT5=
EXTT6=
EXTT7=
EXTT8=
PLAYORDER=
